<svg id="Layer_1" xmlns="http://www.w3.org/2000/svg" viewBox="0 0 841.89 595.28"><g id="Group_1"><path id="Path_1" class="cls-1" d="M586.24,382a285.54,285.54,0,0,1-1.33,30.95,45.19,45.19,0,0,1-44.66,38.14q-22.25.21-44.49,0A45.89,45.89,0,0,1,450.21,406q-.43-24.36,0-48.74a45.66,45.66,0,0,1,45.12-44.7q22.59-.24,45.2,0a45.88,45.88,0,0,1,45.24,44.31c.27,8.34,0,16.71,0,25.07Zm-111.78-.17c0,7.42-.12,14.82,0,22.24a21.28,21.28,0,0,0,20.32,22.2,19.61,19.61,0,0,0,2.3,0H538.7a21.19,21.19,0,0,0,22.65-22.16q.27-22.23,0-44.48A21.34,21.34,0,0,0,541,337.32a20.74,20.74,0,0,0-2.23,0q-20.82-.06-41.63,0a21.48,21.48,0,0,0-22.66,20.23,22.83,22.83,0,0,0,0,2.34c0,7.29.05,14.59.05,21.89Z"/><path id="Path_2" data-name="Path 2" class="cls-1" d="M421,219.44a288.07,288.07,0,0,1-1.28,30.95,44.9,44.9,0,0,1-44.6,38.08q-22.24.18-44.49,0a45.9,45.9,0,0,1-45.74-45.24q-.41-24,0-48a46,46,0,0,1,46.06-45.29q21.9-.14,43.76,0a45.89,45.89,0,0,1,45.89,45.46c.15,8,0,16,0,24Zm-112.15-.12c0,7.66-.05,15.31,0,23a21.15,21.15,0,0,0,20.49,21.78h1.06q22,.18,44.13,0A20.85,20.85,0,0,0,396,243.86c0-.18,0-.36,0-.53q.6-23.82,0-47.67a21.09,21.09,0,0,0-21.38-20.81h-.48q-21.72-.09-43.43,0a21.35,21.35,0,0,0-21.9,20.78c0,.36,0,.73,0,1.09C308.72,204.25,308.81,211.79,308.81,219.32Z"/><path id="Path_3" data-name="Path 3" class="cls-1" d="M396.44,369.42v-35.3a12.23,12.23,0,0,1,12.06-12.4h.18a12.31,12.31,0,0,1,12.17,12.45v.07c-.11,15.65-.18,31.29-.36,47a274.92,274.92,0,0,1-.78,30.65A45.09,45.09,0,0,1,375,451q-22.06.18-44.13,0a46.57,46.57,0,0,1-45.89-44.63q-.74-25,0-50.16a45.51,45.51,0,0,1,44.63-43.68q10.23-.17,20.47,0a12.26,12.26,0,0,1,12.22,12.3V325a12.23,12.23,0,0,1-12.06,12.4H350c-6.41,0-12.71-.08-19.06,0a21.47,21.47,0,0,0-21.84,21.09v.26q-.39,22.59,0,45.18A21.82,21.82,0,0,0,331,425.69h.38q21.71.1,43.43,0A21.23,21.23,0,0,0,396.56,405c0-.31,0-.62,0-.94.13-11.53,0-23.06,0-34.6Z"/><path id="Path_4" data-name="Path 4" class="cls-1" d="M450.18,229.19c0-10.84-.06-21.67,0-32.5a45.82,45.82,0,0,1,44.88-46.75c.72,0,1.45,0,2.17,0h41.33a46.86,46.86,0,0,1,47.2,46.5v.16q.27,23.31,0,46.63a45.89,45.89,0,0,1-46,45.78c-5.33,0-10.59.08-15.89,0a12.14,12.14,0,0,1-12.38-11.92q0-.34,0-.69a12.12,12.12,0,0,1,11.92-12.29h.42c5.34-.1,10.6,0,15.89,0A20.84,20.84,0,0,0,561.26,244a1.7,1.7,0,0,1,0-.22q.71-24,0-48a21.21,21.21,0,0,0-21.56-20.85c-.24,0-.48,0-.72,0q-21-.07-42,0a21.31,21.31,0,0,0-22.49,22.41c-.12,21.34,0,42.62,0,63.92a41.15,41.15,0,0,1-.16,4.58,12.19,12.19,0,0,1-12.51,11,11.94,11.94,0,0,1-11.59-11.92c-.14-11.89,0-23.78,0-35.68Z"/></g></svg>
