<svg id="Layer_1" xmlns="http://www.w3.org/2000/svg" viewBox="0 0 841.89 595.28"><g id="heart"><g id="Group_11" data-name="Group 11"><path id="Path_28" data-name="Path 28" class="cls-1" d="M557,220.31a85.68,85.68,0,0,0-61.67-24.94,80.94,80.94,0,0,0-74.1,39.49l-.39.67-.4-.67a80.93,80.93,0,0,0-74.1-39.49,85.68,85.68,0,0,0-61.66,24.94,92.55,92.55,0,0,0-25.44,66.76c0,56.94,50.62,94.71,95.28,128a321.29,321.29,0,0,1,56.5,48.71,12.63,12.63,0,0,0,17.75,1.92,12.91,12.91,0,0,0,1.92-1.92,192.92,192.92,0,0,1,29.76-28.29,12.63,12.63,0,1,0-15.81-19.69A271.2,271.2,0,0,0,420.89,437a445.4,445.4,0,0,0-51.23-42.13c-41.84-31.21-85.12-63.49-85.12-107.79,0-39.13,25.44-66.45,61.9-66.45a56.66,56.66,0,0,1,52,26.49,73.25,73.25,0,0,1,9.93,28.55,12.62,12.62,0,0,0,25.17.06,73.47,73.47,0,0,1,9.93-28.61,56.69,56.69,0,0,1,52-26.49c36.42,0,61.9,27.33,61.9,66.45,0,36.64-29.89,65.05-62.08,90.29a12.63,12.63,0,1,0,15.58,19.88,267.44,267.44,0,0,0,49.09-47.28,102.62,102.62,0,0,0,22.69-62.89A92.57,92.57,0,0,0,557,220.31Z"/></g></g></svg>
