<svg id="Layer_1" xmlns="http://www.w3.org/2000/svg" viewBox="0 0 841.89 595.28"><path id="home_2" data-name="home 2" class="cls-1" d="M574.52,285.38,444.09,154.1l-.5-.5a37.57,37.57,0,0,0-50.06-.12,3.38,3.38,0,0,0-.5.5L261.41,285.38a12.52,12.52,0,1,0,17.71,17.71l9.89-9.95V401.22a50.18,50.18,0,0,0,50.07,50.07h157.7a50.17,50.17,0,0,0,50.07-50.07,12.52,12.52,0,1,0-25,0h0a25,25,0,0,1-25,25H339.08a25,25,0,0,1-25-25V268.17l96.38-96.12a12.42,12.42,0,0,1,16.21.06l95.19,95.75v70.78a12.52,12.52,0,1,0,25,0V293.07l9.89,9.95a12.53,12.53,0,0,0,17.77-17.66Z"/></svg>
