<svg xmlns="http://www.w3.org/2000/svg" viewBox="0 0 205.1 205.54"><defs><style>.cls-1{fill:#c99a68;}</style></defs><g id="Layer_2" data-name="Layer 2"><g id="Layer_1-2" data-name="Layer 1"><path id="Subtraction_1" data-name="Subtraction 1" class="cls-1" d="M124.6,205.34h0c-4.68,0-9.18,0-13.17-.09-3.24,0-6.31-.06-8.89-.06s-5.53,0-8.7.06c-3.92,0-8.3.08-12.86.08a179.53,179.53,0,0,1-52.09-5.15A42.18,42.18,0,0,1,5.18,176.46C-.41,162.36-.09,131.89.1,111.73c0-3.27.06-6.33.06-8.91s0-5.55-.06-8.73c-.23-20.29-.52-50.86,5.05-65A42.11,42.11,0,0,1,28.86,5.41,175.75,175.75,0,0,1,80.49.2c4.67,0,9.17,0,13.17.09,3.27,0,6.33.06,8.92.06s5.53,0,8.7-.06c3.92,0,8.3-.08,12.86-.08a179.43,179.43,0,0,1,52.08,5.15,42.24,42.24,0,0,1,23.72,23.71c5.59,14.11,5.27,44.57,5.07,64.73,0,3.26-.06,6.33-.06,8.92s0,5.67.06,8.92c.2,20.2.52,50.68-5.07,64.73a42.24,42.24,0,0,1-23.72,23.71A176.36,176.36,0,0,1,124.6,205.34ZM102.54,38.71a64.07,64.07,0,1,0,64.06,64.07v0A64.11,64.11,0,0,0,102.54,38.71Zm66.68-17.57a14.93,14.93,0,1,0,14.93,14.93,14.93,14.93,0,0,0-14.93-14.93ZM102.54,144.41a41.65,41.65,0,1,1,41.65-41.65A41.64,41.64,0,0,1,102.54,144.41Z"/></g></g></svg>