<svg id="Layer_1" data-name="Layer 1" xmlns="http://www.w3.org/2000/svg" viewBox="0 0 841.89 595.28"><g id="pin"><g id="Group_13" data-name="Group 13"><g id="Group_12" data-name="Group 12"><path id="Path_29" data-name="Path 29" class="cls-1" d="M431,199.45a72.38,72.38,0,1,0,19.85,142,11.58,11.58,0,1,0-6.11-22.34l-.23.06A49.16,49.16,0,1,1,478.14,286a11.58,11.58,0,0,0,22.19,6.65A72.43,72.43,0,0,0,431,199.44Z"/></g></g><g id="Group_15" data-name="Group 15"><g id="Group_14" data-name="Group 14"><path id="Path_30" data-name="Path 30" class="cls-1" d="M514.88,187.85a118.7,118.7,0,0,0-202.62,83.88,124,124,0,0,0,19.59,66.16,353,353,0,0,0,41.88,52,394.81,394.81,0,0,1,44,54.32,11.57,11.57,0,0,0,9.79,5.39h6.95a11.56,11.56,0,0,0,9.78-5.39,394.81,394.81,0,0,1,44-54.32,352.38,352.38,0,0,0,41.88-52,124,124,0,0,0,19.59-66.16A117.89,117.89,0,0,0,514.88,187.85ZM471.13,374.27A478.56,478.56,0,0,0,431,422.34a477.22,477.22,0,0,0-40.12-48.07c-29.71-32.54-55.38-60.66-55.42-102.54a95.54,95.54,0,0,1,191,0c0,41.89-25.68,70-55.4,102.54Z"/></g></g></g></svg>
