<svg xmlns="http://www.w3.org/2000/svg" viewBox="0 0 1450.91 314.93"><g id="Layer_2" ><g id="Layer_1-2" ><path id="Path_5" class="cls-1" d="M330,126.23a6.35,6.35,0,0,0,.84-.88q9.42-14.86,18.76-29.74c.31-.49.62-1,1-1.58L368,108c.56-.83,1.12-1.6,1.63-2.41q4.05-6.43,8.08-12.88a7,7,0,0,1,.62-.84,1.9,1.9,0,0,1,2.65-.41l.13.1q4,3.21,8.07,6.45l12.05,9.64c.79.63,1.56,1.27,2.37,1.93,1.29-1,2.59-1.87,3.79-2.88a46.84,46.84,0,0,1,5.28-3.55c3.54-2.26,7.12-4.48,10.7-6.73,2-1.22,4-2.4,6-3.59l4.71-2.8,9.71-5.73a65.87,65.87,0,0,1,17.7-7A82.6,82.6,0,0,1,479,74.82a82.5,82.5,0,0,1,16.84,1.94c1.75.5,3.49,1.06,5.21,1.65,2.57.88,5.12,1.81,7.68,2.73a60.21,60.21,0,0,1,10.62,5.76,91.43,91.43,0,0,1,11.38,8.49c3.95,3.33,7.88,6.68,11.66,10.19,2.36,2.18,4.41,4.71,6.63,7q2.63,2.72,5.34,5.34c2.09,2,4.22,4,6.35,6,4.78,4.43,9.8,8.58,15,12.57A144.16,144.16,0,0,0,590.9,146.9a104.46,104.46,0,0,0,26.15,11.31,83.14,83.14,0,0,0,10.48,2,62,62,0,0,0,16.94-.24,54.32,54.32,0,0,0,15-4.55,52.29,52.29,0,0,0,7.65-4.4c.77-.52,1.45-1.16,2.17-1.75l.61-.46c.44.31.19.6,0,.84-.81,1.35-1.55,2.79-2.46,4.08A57.14,57.14,0,0,1,655.06,167c-2.33,1.74-4.52,3.67-6.89,5.34-2.7,1.88-5.51,3.59-8.3,5.34-1.7,1.07-3.42,2.13-5.19,3.1a34.32,34.32,0,0,1-6.15,2.93c-2.95,1-5.84,2.08-8.8,3-1.84.56-3.75.89-5.63,1.3-1,.23-2,.46-3.07.61s-2.15.18-3.23.3c-4.14.43-8.29.18-12.43.21a6.44,6.44,0,0,1-1.24-.22,7.21,7.21,0,0,0-.9-.19c-2.7-.19-5.39-.67-8-1.06-1.45-.22-2.85-.59-4.25-.93-2.16-.54-4.26-1.35-6.38-2-1.1-.35-2.22-.63-3.31-1s-2-.83-3-1.24c-1.35-.54-2.76-1-4.09-1.62-1.53-.67-3-1.53-4.51-2.3l-4-2c-1.35-.67-2.39-1.41-3.58-2.12-1-.58-2-1.1-3-1.75-2.69-1.8-5.32-3.71-8-5.47-3.11-2-5.9-4.47-8.86-6.73-2-1.48-3.78-3.19-5.64-4.82-2.18-1.92-4.37-3.82-6.47-5.82s-4.28-4.26-6.41-6.4c-1.88-1.89-3.67-3.87-5.63-5.67-2.34-2.14-4.81-4.14-7.23-6.17-1.8-1.52-3.6-3-5.45-4.47-1.58-1.23-3.21-2.41-4.87-3.55-2.26-1.55-4.53-3.11-6.87-4.54-2.5-1.53-5.07-2.95-7.66-4.33-2.35-1.24-4.73-2.41-7.16-3.5-2-.89-4-1.63-6.13-2.4a40.93,40.93,0,0,0-5.59-1.91,43.63,43.63,0,0,0-5.77-1.26,38.75,38.75,0,0,1-4.39-.88,17.66,17.66,0,0,0-2.41-.32c-2.77-.12-5.56-.31-8.34-.29a42.81,42.81,0,0,0-5.17.58c-1.6.23-3.2.49-4.79.79-1,.19-1.93.49-2.89.75-1.3.36-2.61.68-3.89,1.1s-2.3.87-3.45,1.31l-4.19,1.62a12,12,0,0,0-1.26.59c-1.09.58-2.14,1.25-3.27,1.74a14.31,14.31,0,0,1-2.41.57c-.52.86-1.17,1.9-1.79,3-1,1.63-1.89,3.28-2.86,4.9q-2.44,4.15-4.91,8.29-3.13,5.23-6.26,10.47c-1,1.73-2,3.49-3,5.24a2.3,2.3,0,0,1-3.05,1.12,2.46,2.46,0,0,1-.57-.38c-3.95-3.07-7.87-6.17-11.81-9.24-2.35-1.83-4.71-3.63-7.22-5.55l-8.66,14.59-1-.73-22.4-17.49a15.48,15.48,0,0,0-1.34-.88Zm86-21.38.06.15a3.39,3.39,0,0,0,.64-.06,59.56,59.56,0,0,1,8.89-2.5c2.32-.42,4.64-.78,7-1,.62-.06,1.23-.08,1.85-.08,2.64,0,5.28-.22,7.9-.08a45.14,45.14,0,0,1,8,.94c1.39.33,2.84.43,4.22.77a88.37,88.37,0,0,1,11.8,3.74c2.65,1,5.27,2.16,7.87,3.36,1.5.67,2.92,1.55,4.38,2.36,1.24.69,2.48,1.4,3.71,2.11,1.6.94,3.2,1.86,4.76,2.84,1.4.89,2.73,1.85,4.09,2.79a56.52,56.52,0,0,1,5.17,3.64c1.58,1.35,3.37,2.5,4.86,4,1.1,1.08,2.44,1.93,3.6,3,1.35,1.22,2.81,2.27,4.15,3.48,1.12,1,2.16,2.1,3.21,3.19,2.35,2.46,4.91,4.71,7.13,7.3a43.62,43.62,0,0,0,3.32,3.05,34.14,34.14,0,0,0,2.69,2.69,23.61,23.61,0,0,1,2.79,2.5,4.79,4.79,0,0,0,.59.34c.85.68,1.45,1.62,2.56,1.92a6.61,6.61,0,0,0,2.24,2.13c1.35,1,2.63,2.14,4,3.18.94.73,2,1.35,2.9,2.07,1.35,1,2.63,2.11,4,3.07,1.86,1.3,3.78,2.52,5.7,3.73,1.73,1.09,3.48,2.14,5.23,3.18,1,.57,1.94,1.11,2.95,1.61,1.48.75,3,1.45,4.47,2.19a80.38,80.38,0,0,0,10,4.29c3.1,1.05,6.2,2.11,9.36,3,2.45.68,5,1,7.46,1.54a52,52,0,0,0,10.27,1,33.93,33.93,0,0,0,6.83-.31c1.82-.33,3.7-.31,5.52-.67,2.83-.54,5.63-1.2,8.42-1.92a38.06,38.06,0,0,0,5.3-1.71,117.27,117.27,0,0,0,24.73-14.72,1.37,1.37,0,0,0,.15-.21c-1.34.43-2.74.85-4.11,1.34a48,48,0,0,1-10,2.36c-2.26.26-4.53.53-6.81.58-2.69.06-5.34-.06-8-.19a20,20,0,0,1-4.37-.42c-1.44-.4-3-.48-4.45-.74a43.56,43.56,0,0,1-4.52-.91,101.48,101.48,0,0,1-9.78-3.19c-1.64-.68-3.37-1.2-4.93-2-3.44-1.66-6.94-3.24-10.24-5.18-1.68-1-3.4-1.91-5.07-2.94-1.91-1.16-3.81-2.34-5.63-3.62a30.26,30.26,0,0,1-4.54-3.25,24.37,24.37,0,0,0-2.78-2.06c-1-.73-2-1.46-2.94-2.22-.81-.64-1.56-1.34-2.37-2a25,25,0,0,1-2.2-1.63c-1.57-1.54-3.25-2.94-4.94-4.34-1.54-1.28-3-2.69-4.43-4-.63-.58-1.2-1.22-1.83-1.79-.44-.41-1-.71-1.41-1.12-1.12-1.05-2.09-2.24-3.13-3.37-2.17-2.36-4.49-4.59-6.8-6.82-1.46-1.41-3-2.69-4.55-4-2.07-1.88-4.33-3.56-6.52-5.29-1-.78-2-1.6-3-2.28-2-1.35-3.82-2.78-5.8-4q-1.87-1.23-3.8-2.4a35.64,35.64,0,0,1-3.17-1.87,57.82,57.82,0,0,0-6.15-3.44,41.28,41.28,0,0,0-4.53-2.09c-2.69-1.14-5.38-2.31-8.12-3.36a80.9,80.9,0,0,0-10.21-2.94A67.07,67.07,0,0,0,469.1,85.8c-2.17-.16-4.35-.15-6.52-.11a60.22,60.22,0,0,0-6,.38,67.69,67.69,0,0,0-11.17,2.55,53.4,53.4,0,0,0-8.62,3.61c-2.69,1.35-5.24,3-7.84,4.6-.89.54-1.71,1.19-2.6,1.73-1.56,1-3.16,1.84-4.71,2.78-1.35.81-2.69,1.65-4,2.49A14.34,14.34,0,0,0,416,104.85ZM380.1,94.24l-19.51,31,23.14,18.06L402.22,112Z"/><path id="Path_9" class="cls-1" d="M695.85,43.9c.36-.31.71-.67,1.09-.95a107.35,107.35,0,0,1,9.81-7c3.17-2,6.37-4,9.56-5.94,2.79-1.72,5.6-3.42,8.39-5.14,4.37-2.69,8.71-5.46,13.11-8.13,3.15-1.9,6.28-3.84,9.55-5.48,3.58-1.8,7.31-3.32,11-4.86,1.7-.67,3.53-1.12,5.28-1.71a76.34,76.34,0,0,1,11.56-2.89c3.12-.54,6.29-.84,9.42-1.21A71.66,71.66,0,0,1,795.19,0c2.48.08,5,.24,7.4.42,2.13.15,4.25.32,6.37.57,1.72.21,3.43.55,5.15.84,1.1.19,2.21.37,3.31.6,2.11.45,4.23.9,6.33,1.41,2.69.67,5.32,1.34,8,2.07,1.71.48,3.36,1,5.06,1.63,2.07.73,4.15,1.45,6.19,2.29,3,1.23,6.06,2.49,9,3.85,3.44,1.56,6.87,3.18,10.22,4.92s6.49,3.58,9.7,5.46c5.5,3.23,10.85,6.73,16,10.43q4.71,3.38,9.27,7c3.68,2.9,7.36,5.82,10.86,8.93,4.55,4,9,8.22,13.36,12.42,2.21,2.11,4.31,4.36,6.38,6.61,3.4,3.71,7.12,7.11,10.82,10.51s7.68,6.87,11.6,10.22q5.38,4.6,10.93,9c2.32,1.87,4.71,3.62,7.12,5.39,2.14,1.6,4.26,3.23,6.46,4.71q5.71,3.87,11.52,7.59,4.2,2.7,8.53,5.18c4.89,2.82,9.93,5.38,15.06,7.76,3.33,1.53,6.67,3,10.1,4.35s7,2.49,10.6,3.65c2.28.74,4.58,1.34,6.89,2,1.63.45,3.26.94,4.92,1.29,2,.43,4,.75,6.06,1.09,1.79.31,3.59.6,5.38.87.57.09,1.16.09,1.74.16a118.23,118.23,0,0,0,17.55.68c2.17,0,4.34-.13,6.5-.31,1.85-.16,3.69-.45,5.52-.75,2.44-.4,4.89-.82,7.31-1.35,1.63-.34,3.22-.81,4.82-1.28,1.79-.52,3.56-1.08,5.29-1.66,1.5-.5,3-1,4.45-1.62,1.86-.76,3.71-1.55,5.54-2.39a74.82,74.82,0,0,0,7.31-4l.67-.32a3.65,3.65,0,0,1-.4.72,44.66,44.66,0,0,1-5.83,4.78c-2.53,1.63-5,3.33-7.56,4.95-2,1.23-4,2.36-6,3.59-2.87,1.8-5.7,3.69-8.58,5.49-1.94,1.21-3.94,2.32-5.89,3.49-1.25.76-2.45,1.61-3.7,2.38-2.08,1.26-4.18,2.49-6.27,3.73-1.19.72-2.37,1.46-3.59,2.12a71.53,71.53,0,0,1-9.68,4.41c-2.7,1-5.39,2-8.08,2.83-2.52.74-5.11,1.23-7.67,1.79-2.11.46-4.23.92-6.37,1.25-2,.3-3.93.45-5.89.67a88.86,88.86,0,0,1-13.25.46c-3-.12-6.11-.37-9.15-.67-2.81-.27-5.61-.64-8.41-1-1.22-.17-2.42-.48-3.63-.74-2.69-.59-5.45-1.15-8.15-1.82-2.17-.55-4.3-1.22-6.44-1.89-2.55-.79-5.11-1.54-7.61-2.45q-5.05-1.84-10-3.93c-2.46-1-4.85-2.18-7.25-3.32-3.23-1.55-6.48-3.06-9.63-4.76q-5.46-2.94-10.77-6.19c-4.2-2.6-8.33-5.34-12.46-8.07-2.06-1.35-4-2.88-6-4.35-1.81-1.35-3.63-2.65-5.39-4-1.42-1.08-2.81-2.19-4.18-3.36-3.37-2.77-6.66-5.56-10-8.32-4-3.32-7.8-7-11.66-10.49-3.18-2.9-6.06-6.1-9.07-9.16-4.43-4.51-9-8.86-13.58-13.25-1.25-1.22-2.58-2.36-3.89-3.5-1.8-1.54-3.59-3.06-5.39-4.57-2.93-2.4-5.86-4.82-8.83-7.17-1.85-1.47-3.77-2.85-5.68-4.25-2.11-1.56-4.21-3.15-6.38-4.63-2.69-1.85-5.48-3.62-8.26-5.38-2.18-1.39-4.38-2.74-6.63-4-2.85-1.64-5.7-3.28-8.62-4.78-3.61-1.86-7.27-3.6-10.94-5.33-1.67-.79-3.41-1.46-5.14-2.12-3-1.13-6.06-2.28-9.13-3.31-2.41-.82-4.88-1.47-7.34-2.18-1.71-.49-3.41-1-5.14-1.38-2.15-.48-4.32-.9-6.5-1.24-2.91-.45-5.82-.86-8.75-1.24-1.57-.19-3.17-.26-4.76-.3-3.37-.08-6.73-.16-10.1-.13-1.77,0-3.55.19-5.33.36-2.12.19-4.24.4-6.35.67-1.35.17-2.69.48-4,.73s-2.36.44-3.54.72c-1.87.45-3.75.9-5.6,1.44-2.25.67-4.52,1.34-6.73,2.09-2.45.85-4.88,1.74-7.27,2.74a98.49,98.49,0,0,0-11.26,5.39A4,4,0,0,1,696,44Z"/><path id="Path_10" data-name="Path 10" class="cls-1" d="M952.82,162.44c-.92.83-1.87,1.62-2.86,2.35-2.81,1.86-5.67,3.65-8.52,5.45q-2.69,1.71-5.42,3.37c-3.37,2.06-6.73,4.1-10.09,6.19a55.05,55.05,0,0,1-13.28,5.79,57,57,0,0,1-10.58,2.13,63.66,63.66,0,0,1-9.75.51A87.93,87.93,0,0,1,881,187.14a99.57,99.57,0,0,1-14.7-3.83c-4-1.41-8-3.09-11.92-4.88a134.17,134.17,0,0,1-20.58-12,164.67,164.67,0,0,1-15.85-12.39q-5.5-4.92-10.84-10c-3.36-3.25-6.55-6.72-10-9.92A170.78,170.78,0,0,0,778.36,119a137.92,137.92,0,0,0-17.79-10.56,98.18,98.18,0,0,0-17.23-6.61,75.11,75.11,0,0,0-12.89-2.42,67.81,67.81,0,0,0-36.29,6.43l-4,2a2.16,2.16,0,0,1-.41.13l-.13-.19c1.09-.83,2.13-1.73,3.26-2.47q4.81-3.17,9.69-6.21,7.4-4.64,14.8-9.2a62.13,62.13,0,0,1,11.87-5.59,61.1,61.1,0,0,1,14-3.19A68.64,68.64,0,0,1,755.88,81a84.84,84.84,0,0,1,18,3.46,105.29,105.29,0,0,1,19.57,8.22,139.41,139.41,0,0,1,14.83,9.16,167.44,167.44,0,0,1,14.23,11.26c3.93,3.47,7.6,7.2,11.27,11,2.73,2.79,5.59,5.48,8.48,8.11,2.63,2.41,5.38,4.71,8.07,7,4.28,3.6,8.75,7,13.31,10.16a147.49,147.49,0,0,0,17.76,10.62,105.23,105.23,0,0,0,19.69,7.61,76.16,76.16,0,0,0,25.45,2.54,61.64,61.64,0,0,0,16.65-3.55,50,50,0,0,0,8.64-4c.26-.13.53-.26.81-.37Z"/><path id="Path_11" data-name="Path 11" class="cls-1" d="M551,104.91c.76-.61,1.5-1.28,2.31-1.82,3.46-2.29,6.93-4.57,10.43-6.78,4.1-2.59,8.26-5.08,12.35-7.67a70.7,70.7,0,0,1,13.34-6.8,62.21,62.21,0,0,1,12.67-3.32A69.23,69.23,0,0,1,617.16,78a84.58,84.58,0,0,1,18.11,3.45A99.35,99.35,0,0,1,647.33,86a126.56,126.56,0,0,1,20.72,11.72c3.92,2.69,7.67,5.67,11.4,8.64a152.19,152.19,0,0,1,15.63,14.62,160.2,160.2,0,0,0,14,12.95c3.36,2.81,6.77,5.57,10.23,8.24a148.12,148.12,0,0,0,18.25,12,111.92,111.92,0,0,0,21.59,9.42A89.27,89.27,0,0,0,770,166.18a74.28,74.28,0,0,0,19,.83,57.71,57.71,0,0,0,13.63-2.78,56.67,56.67,0,0,0,8.59-3.5c1.09-.57,2.16-1.19,3.29-1.72a13.35,13.35,0,0,1-3.31,3c-2.82,1.84-5.68,3.63-8.53,5.42q-5.71,3.59-11.44,7.13a68.84,68.84,0,0,1-12,6.35,66,66,0,0,1-10,3,59.73,59.73,0,0,1-8.63,1.2c-2.32.12-4.65.29-7,.22a75.17,75.17,0,0,1-11.21-1.08,101.83,101.83,0,0,1-16.46-4.45,126.08,126.08,0,0,1-19.15-8.9,158,158,0,0,1-18-12A208.5,208.5,0,0,1,670.47,143c-1.76-1.69-3.36-3.56-5.09-5.27-3.23-3.14-6.44-6.29-9.81-9.29A170.75,170.75,0,0,0,639.76,116,139,139,0,0,0,622,105.48a96,96,0,0,0-17.35-6.61,77.81,77.81,0,0,0-16.26-2.63,64.43,64.43,0,0,0-15.06.94,69.73,69.73,0,0,0-17.64,5.71c-1.4.67-2.77,1.34-4.16,2.06a3.17,3.17,0,0,1-.41.12Z"/><path id="Path_6" data-name="Path 6" class="cls-1" d="M1450.91,313.67h-45.79V250.24c1.55-.44,41.29-.58,44.28-.16v4.42c-.78,0-1.6.1-2.42.1h-37.19v23.34c.83,0,1.64.1,2.46.1h34.65v4.71c-6.18.07-12.34,0-18.51,0s-12.22,0-18.29,0a219.54,219.54,0,0,0-.12,26.16h40.93Z"/><path id="Path_7" data-name="Path 7" class="cls-1" d="M0,250H5.11v27H44.37c.16-2.22.05-4.48.07-6.73s0-4.41,0-6.62V250.12A11.27,11.27,0,0,1,49,250v63.52H44.44V282H5.15c0,10.45,0,20.86,0,31.63H0v-2.13c.07-1.06.22-2.12.22-3.17v-53c0-1.06-.15-2.11-.22-3.16Z"/><path id="Path_8" data-name="Path 8" class="cls-1" d="M1327.94,314.93c-.68-.25-1.35-.53-2-.71a14.65,14.65,0,0,1-11.19-12.83,24.37,24.37,0,0,1-.22-2.55,5.88,5.88,0,0,1,.1-.94h4.45c.1.67.16,1.34.3,2a29.91,29.91,0,0,0,1,3.92,8.81,8.81,0,0,0,7,5.88,18.86,18.86,0,0,0,7.63-.18,8.1,8.1,0,0,0,5.87-4.81,18.69,18.69,0,0,0,1.56-6.82c.11-1.84.14-3.69.14-5.54V250h4.53c0,.68.13,1.28.13,1.89,0,14,.06,28,0,42a45.48,45.48,0,0,1-1,9.3,13.19,13.19,0,0,1-10.76,11.08,9.31,9.31,0,0,0-1.54.61Z"/><path id="Path_12" data-name="Path 12" class="cls-1" d="M520.34,313.59H516c-.46-1.59-.55-61.11-.09-63.63.67,0,1.35-.11,2-.11,9,0,17.93-.09,26.91,0a39.56,39.56,0,0,1,8.87,1.07,14,14,0,0,1,11.44,12.78,22,22,0,0,1-.79,9.5,14.7,14.7,0,0,1-9.3,9.6c-.73.28-1.47.48-2.43.79.36.44.75.86,1.16,1.27a16.52,16.52,0,0,1,4.63,6.56q4,10.55,8.07,21.13a5.09,5.09,0,0,1,.18,1h-4.88c-.22-.53-.51-1.15-.75-1.8-1.85-4.92-3.63-9.88-5.56-14.77a40,40,0,0,0-3-6.32A11.25,11.25,0,0,0,542,284.88c-6.4.14-12.78,0-19.2,0h-2.4Zm.1-33.68a4.9,4.9,0,0,0,.92.21c8.68-.07,17.35-.07,26-.28a20.07,20.07,0,0,0,6-1.29,9.33,9.33,0,0,0,6.45-7.33,24.2,24.2,0,0,0,.44-5.7,9.64,9.64,0,0,0-8.08-9.89,32.84,32.84,0,0,0-7.58-1c-7.53-.13-15.07,0-22.61,0a14.36,14.36,0,0,0-1.59.19Z"/><path id="Path_13" data-name="Path 13" class="cls-1" d="M308.7,313.66V250.14c.71,0,1.35-.11,1.95-.11H329a43.43,43.43,0,0,1,12.82,1.87,23.68,23.68,0,0,1,16.83,17.63,47.61,47.61,0,0,1-.15,24.46,24.67,24.67,0,0,1-20.74,18.73,57.1,57.1,0,0,1-9.31.89c-5.83.14-11.66,0-17.5,0Zm4.64-4.9a6,6,0,0,0,.82.17c5.55,0,11.09,0,16.64-.09a37.3,37.3,0,0,0,6.73-.83,19.56,19.56,0,0,0,16.54-16.21,51.28,51.28,0,0,0,.16-20.13,18.61,18.61,0,0,0-11.8-14.8,29.58,29.58,0,0,0-10.38-2.15c-5.83-.13-11.66-.11-17.5-.14a7.52,7.52,0,0,0-1.24.23Z"/><path id="Path_14" data-name="Path 14" class="cls-1" d="M459.11,250v4.45c-2.64.26-5.25.09-7.85.12s-5.26,0-7.9,0h-24V278c4.25.15,8.35,0,12.46.07s8.25,0,12.38,0h12.43v4.71H419.8a236.82,236.82,0,0,0-.23,26.24h41.12v4.56H414.8V250Z"/><path id="Path_15" data-name="Path 15" class="cls-1" d="M963.45,313.54h-4.63V282H919.57v31.49H915V250h4.41c.13,4.45,0,8.9.06,13.35s0,8.95,0,13.36c1.82.51,37.17.56,39.34.05V250.05h4.6Z"/><path id="Path_16" data-name="Path 16" class="cls-1" d="M831.35,278.79c-4.2,4-8.17,7.94-12.19,11.76a3,3,0,0,0-.75,2.54v20.4h-4.32c-.44-1.42-.56-60.79-.09-63.51h4.34v34.24c1.06,0,1.39-.68,1.85-1.14q16.35-15.81,32.63-31.63a4.61,4.61,0,0,1,3.93-1.6,35.62,35.62,0,0,0,3.58,0l.21.43-25.76,25L863,313.57a32.14,32.14,0,0,1-5.72,0c-.54-.06-1.09-.81-1.49-1.35q-8.32-11.36-16.59-22.77l-6.41-8.8C832.38,280.09,831.94,279.55,831.35,278.79Z"/><path id="Path_17" data-name="Path 17" class="cls-1" d="M646.19,249.85l26,63.69h-5.59l-7.72-20.23H627.45L620,313.56h-4.86c.23-.72.4-1.34.62-1.9l23.13-60.08c.67-1.7.67-1.71,2.42-1.73C642.86,249.83,644.42,249.85,646.19,249.85Zm11.26,39.64-14.61-35c-1.43,2.18-13.68,33.34-13.8,35Z"/><path id="Path_18" data-name="Path 18" class="cls-1" d="M1242.29,249.85l26,63.72h-5.58L1255,293.33h-31.4l-7.47,20.25h-4.83c.22-.72.37-1.34.59-1.89q11.57-30.06,23.14-60.12c.68-1.7.68-1.7,2.43-1.72C1239,249.83,1240.53,249.85,1242.29,249.85Zm-3.28,4.79h-.47l-4.62,11.64c-1.52,3.83-3.08,7.64-4.55,11.49s-3.23,7.64-4.48,11.67c3.76.41,26.8.25,28.54-.23Z"/><path id="Path_19" data-name="Path 19" class="cls-1" d="M1071.2,313.59h-5.5L1058,293.31h-31.37l-7.46,20.27h-5l24.56-63.71c2,0,3.86-.05,5.76,0,.43,0,.88.54,1.23.92a3,3,0,0,1,.43,1l24.3,59.6C1070.67,312,1070.89,312.71,1071.2,313.59Zm-29.34-59.35c-3.45,7.29-13.65,33.64-13.7,35.27h28.41Z"/><path id="Path_20" data-name="Path 20" class="cls-1" d="M99.76,313.53,124.28,250H131l25.93,63.59h-5.59l-7.73-20.22H112.2l-7.4,20.19Zm42.46-24-14.61-35c-5,11.62-9.67,23.16-14.21,35Z"/><path id="Path_21" data-name="Path 21" class="cls-1" d="M1122.22,250h41v4.53h-36.38v23.88h31.56v4.71h-31.63c-.1,2.69,0,5.26,0,7.79s0,5,0,7.47v15.2h-4.54Z"/><path id="Path_22" data-name="Path 22" class="cls-1" d="M231.87,313.59h-4.6c0-.77-.08-1.52-.08-2.26v-23a5.91,5.91,0,0,0-1.11-3.54q-11.18-16.15-22.28-32.3c-.47-.67-.94-1.39-1.54-2.29a11.2,11.2,0,0,1,4.92-.17c.54.08,1,.88,1.44,1.44q8.61,12.31,17.19,24.67l3.69,5.24c.55-.77,1-1.34,1.44-2,6.35-9.17,12.74-18.33,19-27.58a3.61,3.61,0,0,1,3.82-2,22.9,22.9,0,0,0,2.87,0c-.62,1-1,1.64-1.43,2.27Q244.11,268.37,233,284.64a6.14,6.14,0,0,0-1.14,3.76c0,7.53,0,15.07,0,22.61Z"/><path id="Path_23" data-name="Path 23" class="cls-1" d="M723.07,249.94h4.56v59h32.74v4.63h-37.3Z"/></g></g></svg>
