<svg xmlns="http://www.w3.org/2000/svg" viewBox="0 0 790.56 189.15"><defs><style>.cls-1{fill:#c99a68;}</style></defs><g id="Layer_2" data-name="Layer 2"><g id="Layer_1-2" data-name="Layer 1"><path id="Path_5" data-name="Path 5" class="cls-1" d="M0,126.23a6.35,6.35,0,0,0,.84-.88q9.42-14.86,18.76-29.74l1-1.58L38.07,108c.57-.83,1.12-1.6,1.64-2.41l8.07-12.88a8.25,8.25,0,0,1,.62-.84,1.9,1.9,0,0,1,2.65-.41l.13.1q4,3.21,8.07,6.45l12.06,9.64,2.36,1.93c1.29-1,2.59-1.87,3.79-2.88a46.84,46.84,0,0,1,5.28-3.55c3.54-2.26,7.12-4.48,10.7-6.73,2-1.22,4-2.4,6-3.59L104.1,90l9.71-5.73a65.87,65.87,0,0,1,17.7-7A82.69,82.69,0,0,1,149,74.82a55.76,55.76,0,0,1,7.2.4,56.23,56.23,0,0,1,9.65,1.54c1.75.5,3.48,1.06,5.2,1.65,2.58.88,5.13,1.81,7.68,2.73a60.3,60.3,0,0,1,10.63,5.76,92.08,92.08,0,0,1,11.37,8.49c4,3.33,7.88,6.68,11.67,10.19,2.35,2.18,4.4,4.71,6.62,7q2.63,2.72,5.34,5.34c2.09,2,4.22,4,6.35,6,4.79,4.43,9.81,8.58,15,12.57a145.19,145.19,0,0,0,15.27,10.41,104.46,104.46,0,0,0,26.15,11.31,83.14,83.14,0,0,0,10.48,2,62,62,0,0,0,16.94-.24,54.39,54.39,0,0,0,15.06-4.55,52.71,52.71,0,0,0,7.64-4.4c.77-.52,1.45-1.16,2.17-1.75l.61-.46c.44.31.19.6.05.84-.8,1.35-1.54,2.79-2.46,4.08A56.93,56.93,0,0,1,325.1,167c-2.33,1.74-4.52,3.67-6.89,5.34-2.69,1.88-5.51,3.59-8.3,5.34-1.7,1.07-3.42,2.13-5.19,3.1a34.32,34.32,0,0,1-6.15,2.93c-2.95,1-5.84,2.08-8.8,3-1.83.56-3.75.89-5.63,1.3-1,.23-2,.46-3.07.61s-2.15.18-3.23.3c-4.14.43-8.29.18-12.43.21a6.44,6.44,0,0,1-1.24-.22,7.21,7.21,0,0,0-.9-.19c-2.69-.19-5.39-.67-8-1.06-1.46-.22-2.86-.59-4.26-.93-2.16-.54-4.26-1.35-6.38-2-1.1-.35-2.22-.63-3.31-1s-2-.83-3-1.24c-1.35-.54-2.76-1-4.09-1.62-1.53-.67-3-1.53-4.51-2.3l-4-2c-1.35-.67-2.38-1.41-3.58-2.12-1-.58-2-1.1-3-1.75-2.69-1.8-5.32-3.71-8-5.47-3.12-2-5.91-4.47-8.87-6.73-2-1.48-3.78-3.19-5.64-4.82-2.18-1.92-4.37-3.82-6.47-5.82s-4.28-4.26-6.41-6.4c-1.88-1.89-3.67-3.87-5.63-5.67-2.34-2.14-4.81-4.14-7.23-6.17-1.8-1.52-3.6-3-5.45-4.47-1.58-1.23-3.21-2.41-4.87-3.55-2.26-1.55-4.52-3.11-6.87-4.54-2.5-1.53-5.07-2.95-7.66-4.33-2.35-1.24-4.73-2.41-7.16-3.5-2-.89-4-1.63-6.13-2.4a40.47,40.47,0,0,0-5.59-1.91,43.63,43.63,0,0,0-5.77-1.26,38.15,38.15,0,0,1-4.38-.88,17.87,17.87,0,0,0-2.41-.32c-2.78-.12-5.57-.31-8.35-.29a42.43,42.43,0,0,0-5.16.58c-1.61.23-3.21.49-4.8.79-1,.19-1.93.49-2.89.75-1.3.36-2.61.68-3.89,1.1s-2.3.87-3.44,1.31l-4.2,1.62a12,12,0,0,0-1.26.59c-1.09.58-2.14,1.25-3.27,1.74a14.2,14.2,0,0,1-2.4.57c-.53.86-1.17,1.9-1.8,3-1,1.63-1.89,3.28-2.85,4.9L65.3,129.3q-3.13,5.23-6.25,10.47c-1,1.73-2,3.49-3,5.24a2.3,2.3,0,0,1-3,1.12,2.46,2.46,0,0,1-.57-.38c-3.94-3.07-7.87-6.17-11.81-9.24-2.35-1.83-4.71-3.63-7.22-5.55l-8.65,14.59-1-.73L1.35,127.33c-.42-.33-.9-.59-1.35-.88Zm86.05-21.38.07.15a3.36,3.36,0,0,0,.63-.06,59.56,59.56,0,0,1,8.89-2.5c2.33-.42,4.65-.78,7-1,.62-.06,1.24-.08,1.86-.08,2.63,0,5.27-.22,7.9-.08a45.35,45.35,0,0,1,8,.94c1.38.33,2.83.43,4.22.77a88.7,88.7,0,0,1,11.79,3.74c2.65,1,5.28,2.16,7.87,3.36,1.5.67,2.92,1.55,4.38,2.36,1.24.69,2.48,1.4,3.71,2.11,1.6.94,3.21,1.86,4.77,2.84,1.39.89,2.72,1.85,4.08,2.79a58.08,58.08,0,0,1,5.18,3.64c1.58,1.35,3.36,2.5,4.85,4,1.11,1.08,2.45,1.93,3.6,3,1.35,1.22,2.81,2.27,4.15,3.48,1.12,1,2.17,2.1,3.21,3.19,2.35,2.46,4.91,4.71,7.13,7.3a43.62,43.62,0,0,0,3.32,3.05,34.14,34.14,0,0,0,2.69,2.69,23.61,23.61,0,0,1,2.79,2.5,5.66,5.66,0,0,0,.59.34c.85.68,1.45,1.62,2.56,1.92a6.61,6.61,0,0,0,2.24,2.13c1.35,1,2.63,2.14,4,3.18.94.73,2,1.35,2.91,2.07,1.34,1,2.62,2.11,4,3.07,1.87,1.3,3.78,2.52,5.7,3.73,1.73,1.09,3.48,2.14,5.24,3.18,1,.57,1.94,1.11,2.94,1.61,1.48.75,3,1.45,4.47,2.19a81,81,0,0,0,10,4.29c3.1,1.05,6.2,2.11,9.36,3,2.45.68,5,1,7.47,1.54a51.94,51.94,0,0,0,10.26,1,33.93,33.93,0,0,0,6.83-.31c1.82-.33,3.71-.31,5.52-.67,2.83-.54,5.63-1.2,8.42-1.92a37.63,37.63,0,0,0,5.3-1.71,117.27,117.27,0,0,0,24.73-14.72,1.46,1.46,0,0,0,.16-.21c-1.35.43-2.75.85-4.12,1.34a48.06,48.06,0,0,1-10,2.36c-2.27.26-4.54.53-6.81.58-2.7.06-5.35-.06-8-.19a20,20,0,0,1-4.37-.42c-1.44-.4-3-.48-4.45-.74a43.56,43.56,0,0,1-4.52-.91,101.48,101.48,0,0,1-9.78-3.19c-1.64-.68-3.37-1.2-4.93-2-3.44-1.66-6.93-3.24-10.24-5.18-1.68-1-3.4-1.91-5.07-2.94-1.91-1.16-3.8-2.34-5.63-3.62a31.32,31.32,0,0,1-4.54-3.25,23.51,23.51,0,0,0-2.78-2.06c-1-.73-2-1.46-2.94-2.22s-1.56-1.34-2.37-2a26.59,26.59,0,0,1-2.2-1.63c-1.57-1.54-3.25-2.94-4.94-4.34-1.54-1.28-3-2.69-4.43-4-.63-.58-1.2-1.22-1.82-1.79-.45-.41-1-.71-1.42-1.12-1.12-1.05-2.09-2.24-3.13-3.37-2.16-2.36-4.49-4.59-6.79-6.82-1.46-1.41-3.06-2.69-4.56-4-2.06-1.88-4.33-3.56-6.52-5.29-1-.78-1.95-1.6-3-2.28-2-1.35-3.83-2.78-5.8-4q-1.89-1.23-3.81-2.4a35.64,35.64,0,0,1-3.17-1.87,56.85,56.85,0,0,0-6.15-3.44,41.13,41.13,0,0,0-4.52-2.09c-2.7-1.14-5.39-2.31-8.13-3.36a80.9,80.9,0,0,0-10.21-2.94,66.9,66.9,0,0,0-10.63-1.62c-2.17-.16-4.35-.15-6.52-.11-2,0-4,.15-6,.38a67.69,67.69,0,0,0-11.17,2.55,53.3,53.3,0,0,0-8.61,3.61c-2.7,1.35-5.25,3-7.85,4.6-.89.54-1.71,1.19-2.6,1.73-1.56,1-3.16,1.84-4.71,2.78-1.34.81-2.69,1.65-4,2.49A13.54,13.54,0,0,0,86.07,104.85ZM50.14,94.24l-19.51,31,23.15,18.06L72.26,112Z"/><path id="Path_9" data-name="Path 9" class="cls-1" d="M365.89,43.9c.36-.31.71-.67,1.09-.95a107.49,107.49,0,0,1,9.82-7c3.16-2,6.36-4,9.55-5.94,2.79-1.72,5.6-3.42,8.39-5.14,4.38-2.69,8.72-5.46,13.12-8.13,3.14-1.9,6.27-3.84,9.54-5.48,3.58-1.8,7.31-3.32,11-4.86,1.7-.67,3.53-1.12,5.28-1.71a76.64,76.64,0,0,1,11.56-2.89c3.12-.54,6.29-.84,9.42-1.21A71.66,71.66,0,0,1,465.23,0c2.49.08,5,.24,7.4.42,2.13.15,4.26.32,6.37.57,1.72.21,3.43.55,5.15.84,1.1.19,2.21.37,3.31.6,2.11.45,4.23.9,6.33,1.41,2.69.67,5.32,1.34,8,2.07,1.71.48,3.36,1,5.06,1.63C508.88,8.29,511,9,513,9.85c3,1.23,6.06,2.49,9,3.85,3.44,1.56,6.87,3.18,10.22,4.92s6.5,3.58,9.7,5.46c5.5,3.23,10.85,6.73,16,10.43q4.71,3.38,9.27,7c3.68,2.9,7.36,5.82,10.86,8.93,4.55,4,9,8.22,13.36,12.42,2.22,2.11,4.31,4.36,6.38,6.61,3.41,3.71,7.12,7.11,10.82,10.51s7.68,6.87,11.6,10.22q5.38,4.6,10.93,9c2.32,1.87,4.71,3.62,7.12,5.39,2.14,1.6,4.26,3.23,6.46,4.71q5.72,3.87,11.52,7.59,4.2,2.7,8.53,5.18c4.89,2.82,9.93,5.38,15.07,7.76,3.32,1.53,6.66,3,10.09,4.35s7,2.49,10.6,3.65c2.28.74,4.59,1.34,6.89,2,1.63.45,3.26.94,4.92,1.29,2,.43,4,.75,6.06,1.09,1.79.31,3.59.6,5.38.87.57.09,1.16.09,1.74.16a118.23,118.23,0,0,0,17.55.68c2.17,0,4.35-.13,6.51-.31,1.85-.16,3.68-.45,5.51-.75,2.45-.4,4.89-.82,7.31-1.35,1.63-.34,3.22-.81,4.82-1.28,1.79-.52,3.56-1.08,5.29-1.66,1.5-.5,3-1,4.45-1.62,1.86-.76,3.71-1.55,5.54-2.39a74.82,74.82,0,0,0,7.31-4l.68-.32a3.7,3.7,0,0,1-.41.72,45.24,45.24,0,0,1-5.82,4.78c-2.54,1.63-5,3.33-7.57,4.95-2,1.23-4,2.36-6,3.59-2.87,1.8-5.7,3.69-8.58,5.49-1.94,1.21-3.94,2.32-5.89,3.49-1.25.76-2.45,1.61-3.7,2.38-2.07,1.26-4.17,2.49-6.27,3.73-1.19.72-2.37,1.46-3.59,2.12A71.53,71.53,0,0,1,733.1,166c-2.69,1-5.39,2-8.08,2.83-2.51.74-5.1,1.23-7.67,1.79-2.11.46-4.23.92-6.36,1.25-2,.3-3.93.45-5.9.67a88.86,88.86,0,0,1-13.25.46c-3.05-.12-6.11-.37-9.15-.67-2.81-.27-5.61-.64-8.41-1-1.22-.17-2.42-.48-3.63-.74-2.69-.59-5.45-1.15-8.14-1.82-2.18-.55-4.31-1.22-6.45-1.89-2.55-.79-5.11-1.54-7.6-2.45q-5.07-1.84-10-3.93c-2.46-1-4.85-2.18-7.25-3.32-3.23-1.55-6.48-3.06-9.63-4.76q-5.46-2.94-10.76-6.19c-4.21-2.6-8.34-5.34-12.47-8.07-2.05-1.35-4-2.88-6.05-4.35-1.81-1.35-3.63-2.65-5.39-4-1.42-1.08-2.81-2.19-4.18-3.36-3.36-2.77-6.66-5.56-10-8.32-4-3.32-7.79-7-11.66-10.49-3.18-2.9-6-6.1-9.07-9.16-4.43-4.51-9-8.86-13.58-13.25-1.25-1.22-2.57-2.36-3.89-3.5-1.8-1.54-3.59-3.06-5.39-4.57-2.93-2.4-5.86-4.82-8.83-7.17-1.85-1.47-3.77-2.85-5.67-4.25-2.12-1.56-4.22-3.15-6.39-4.63-2.69-1.85-5.48-3.62-8.26-5.38-2.18-1.39-4.38-2.74-6.63-4-2.85-1.64-5.7-3.28-8.62-4.78-3.61-1.86-7.27-3.6-10.93-5.33-1.68-.79-3.42-1.46-5.15-2.12-3-1.13-6.06-2.28-9.13-3.31-2.41-.82-4.88-1.47-7.34-2.18-1.71-.49-3.41-1-5.14-1.38-2.15-.48-4.32-.9-6.5-1.24q-4.35-.68-8.75-1.24c-1.57-.19-3.16-.26-4.76-.3-3.36-.08-6.73-.16-10.09-.13-1.78,0-3.56.19-5.34.36-2.12.19-4.24.4-6.35.67-1.35.17-2.69.48-4,.73s-2.36.44-3.53.72c-1.88.45-3.76.9-5.61,1.44-2.25.67-4.51,1.34-6.73,2.09-2.45.85-4.88,1.74-7.26,2.74a97.84,97.84,0,0,0-11.27,5.39A3.8,3.8,0,0,1,366,44Z"/><path id="Path_10" data-name="Path 10" class="cls-1" d="M622.86,162.44c-.92.83-1.87,1.62-2.86,2.35-2.81,1.86-5.67,3.65-8.52,5.45q-2.68,1.71-5.42,3.37c-3.36,2.06-6.73,4.1-10.09,6.19a55.05,55.05,0,0,1-13.28,5.79,57,57,0,0,1-10.58,2.13,63.53,63.53,0,0,1-9.75.51A87.6,87.6,0,0,1,551,187.14a99.37,99.37,0,0,1-14.71-3.83c-4-1.41-8-3.09-11.92-4.88a134.17,134.17,0,0,1-20.58-12A163.32,163.32,0,0,1,488,154.06q-5.5-4.92-10.84-10c-3.37-3.25-6.56-6.72-10-9.92A169.84,169.84,0,0,0,448.4,119a137.92,137.92,0,0,0-17.79-10.56,98.08,98.08,0,0,0-17.22-6.61,75.41,75.41,0,0,0-12.9-2.42,67.77,67.77,0,0,0-36.28,6.43l-4,2a2,2,0,0,1-.41.13l-.12-.19c1.08-.83,2.12-1.73,3.25-2.47q4.82-3.17,9.69-6.21Q380,94.52,387.39,90a63.57,63.57,0,0,1,25.87-8.78A68.64,68.64,0,0,1,425.92,81a84.84,84.84,0,0,1,18,3.46,105.29,105.29,0,0,1,19.57,8.22,140.56,140.56,0,0,1,14.84,9.16,167.3,167.3,0,0,1,14.22,11.26c3.93,3.47,7.6,7.2,11.27,11,2.73,2.79,5.59,5.48,8.48,8.11,2.63,2.41,5.38,4.71,8.07,7,4.28,3.6,8.75,7,13.31,10.16a148.27,148.27,0,0,0,17.76,10.62,105.23,105.23,0,0,0,19.69,7.61,76.19,76.19,0,0,0,25.46,2.54,61.65,61.65,0,0,0,16.64-3.55,49.7,49.7,0,0,0,8.64-4c.27-.13.53-.26.81-.37Z"/><path id="Path_11" data-name="Path 11" class="cls-1" d="M221,104.91c.77-.61,1.5-1.28,2.31-1.82,3.46-2.29,6.93-4.57,10.43-6.78,4.1-2.59,8.26-5.08,12.35-7.67a71.31,71.31,0,0,1,13.34-6.8,62.21,62.21,0,0,1,12.67-3.32A69.23,69.23,0,0,1,287.2,78a84.46,84.46,0,0,1,18.11,3.45A99.35,99.35,0,0,1,317.37,86a126.56,126.56,0,0,1,20.72,11.72c3.92,2.69,7.67,5.67,11.41,8.64a153.12,153.12,0,0,1,15.62,14.62,161.65,161.65,0,0,0,14,12.95c3.36,2.81,6.77,5.57,10.23,8.24a149.64,149.64,0,0,0,18.25,12,111.92,111.92,0,0,0,21.59,9.42A89.27,89.27,0,0,0,440,166.18a74.36,74.36,0,0,0,19,.83,57.63,57.63,0,0,0,13.62-2.78,56.25,56.25,0,0,0,8.59-3.5c1.09-.57,2.16-1.19,3.29-1.72a13.35,13.35,0,0,1-3.31,3c-2.82,1.84-5.68,3.63-8.53,5.42Q467,171,461.24,174.52a68.84,68.84,0,0,1-12,6.35,65.71,65.71,0,0,1-10,3,59.59,59.59,0,0,1-8.62,1.2c-2.33.12-4.65.29-7,.22a75.17,75.17,0,0,1-11.21-1.08A101.72,101.72,0,0,1,396,179.72a126.19,126.19,0,0,1-19.16-8.9,158,158,0,0,1-18-12A208.5,208.5,0,0,1,340.51,143c-1.75-1.69-3.36-3.56-5.09-5.27-3.23-3.14-6.44-6.29-9.8-9.29A172.23,172.23,0,0,0,309.8,116,138.32,138.32,0,0,0,292,105.48a95.72,95.72,0,0,0-17.35-6.61,77.81,77.81,0,0,0-16.26-2.63,64.43,64.43,0,0,0-15.06.94,69.66,69.66,0,0,0-17.63,5.71c-1.4.67-2.78,1.34-4.17,2.06a2.77,2.77,0,0,1-.41.12Z"/></g></g></svg>