<svg id="Layer_1" data-name="Layer 1" xmlns="http://www.w3.org/2000/svg" viewBox="0 0 841.89 595.28"><path id="user" class="cls-1" d="M536.24,334.7a128.56,128.56,0,0,0-32.76-20.51,10.71,10.71,0,0,0-8.7,19.58,107.29,107.29,0,0,1,27.32,17.08A42.67,42.67,0,0,1,536.57,383v19.82a10.67,10.67,0,0,1-10.67,10.67h-210a10.67,10.67,0,0,1-10.68-10.67V382.91a42.7,42.7,0,0,1,14.48-32.11c10.82-9.51,42.37-31.64,101.23-31.64a79.37,79.37,0,1,0-48.29-16.45,148.87,148.87,0,0,0-67.08,32,64.16,64.16,0,0,0-21.81,48.19v19.82a32.17,32.17,0,0,0,32.15,32.14h210A32.16,32.16,0,0,0,558,402.74V382.91a64.14,64.14,0,0,0-21.76-48.21ZM363,239.88a57.86,57.86,0,1,1,57.85,57.85A57.86,57.86,0,0,1,363,239.88Z"/></svg>
