<svg xmlns="http://www.w3.org/2000/svg" viewBox="0 0 223.69 210.15"><g id="Layer_2" data-name="Layer 2"><g id="Layer_1-2" data-name="Layer 1"><path id="Icon_awesome-snapchat-ghost" data-name="Icon awesome-snapchat-ghost" class="cls-1" d="M223.13,164.81c-2.28,5.27-11.9,9.21-29.42,11.93a82.51,82.51,0,0,0-2.85,10.46,5.06,5.06,0,0,1-5.27,3.88h-.13c-4.1,0-8.39-1.89-17-1.89a34.51,34.51,0,0,0-24.59,9,49.14,49.14,0,0,1-32.36,12,50.19,50.19,0,0,1-31.83-12,34.5,34.5,0,0,0-24.59-9,163.87,163.87,0,0,0-17,2.06,5.18,5.18,0,0,1-5.43-3.95,80.42,80.42,0,0,0-2.85-10.54c-9-1.4-29.35-4.95-29.87-14a4.64,4.64,0,0,1,3.87-4.83c30.39-5,44.08-36.21,44.65-37.54l.1-.23a9.89,9.89,0,0,0,1.08-8.19c-2.21-5.2-11.74-7-15.75-8.65-10.36-4.09-11.8-8.78-11.19-12a11.24,11.24,0,0,1,14.37-6.79l.06,0a25,25,0,0,0,10.28,2.75,8.78,8.78,0,0,0,4.39-1c-.87-15.69-3.1-38.12,2.49-50.65A59.51,59.51,0,0,1,109.6,0H114a59.09,59.09,0,0,1,55.33,35.66c5.58,12.51,3.38,34.84,2.48,50.67a8.66,8.66,0,0,0,3.76.93,26.07,26.07,0,0,0,9.66-2.73,11.85,11.85,0,0,1,8.95,0h0A9.08,9.08,0,0,1,201,92.35c.08,4.26-3.73,7.9-11.3,10.92-.93.37-2.05.72-3.25,1.11-4.28,1.35-10.74,3.4-12.5,7.54a9.92,9.92,0,0,0,1.07,8.19l.11.22c.57,1.33,14.24,32.5,44.64,37.54a4.76,4.76,0,0,1,3.86,5.53A4.71,4.71,0,0,1,223.13,164.81Z"/></g></g></svg>
